# xmcd
#
# Track frame offsets:
# 150
# 13662
# 24850
# 34560
# 45027
# 60437
# 76292
# 89932
# 126767
# 140342
# 153615
# 167717
# 185607
# 195110
# 207385
# 232695
# 243010
# 249020
# 263270
# 278977
# 288747
# 305590
#
# Disc length: 4385 seconds
#
#
# Revision: 1
# Processed by: cddbd v1.4PL0 Copyright (c) Steve Scherf et al.
# Submitted via: FreeRIP 2.11 
#
DISCID=14111f16
DTITLE=Latraverse, Plume - Le lour passé de Plume Latraverse Vol. II
DYEAR=1995
DGENRE=Folk
TTITLE0=Dis-moé
TTITLE1=Vie d'ange
TTITLE2=Lit vert
TTITLE3=Le fermier Jean
TTITLE4=Elégie
TTITLE5=Hold-Up
TTITLE6=Retour à la terre
TTITLE7=La fête du mort
TTITLE8=Faux dur (et...trouble-fête)
TTITLE9=La ballade des caisses de 24
TTITLE10=Gisèle avec 2 L
TTITLE11=Bobépine
TTITLE12=Assis ent'2 chaises
TTITLE13=Parade de modes
TTITLE14=Ma porte de shed
TTITLE15=Mauvaise herbe
TTITLE16=Vieux Neg
TTITLE17=Chanson nette
TTITLE18=J'veux m'en r'tourner chez nous (Alcohol...)
TTITLE19=Tango Pital
TTITLE20=Bienheureuse recuperation
TTITLE21=Ne pleure pas petite fille
EXTD=
EXTT0=
EXTT1=
EXTT2=
EXTT3=
EXTT4=
EXTT5=
EXTT6=
EXTT7=
EXTT8=
EXTT9=
EXTT10=
EXTT11=
EXTT12=
EXTT13=
EXTT14=
EXTT15=
EXTT16=
EXTT17=
EXTT18=
EXTT19=
EXTT20=
EXTT21=
PLAYORDER=
